<?xml version="1.0" encoding="UTF-8" standalone="no"?>
<!-- Created with Inkscape (http://www.inkscape.org/) -->

<svg
   xmlns:dc="http://purl.org/dc/elements/1.1/"
   xmlns:cc="http://creativecommons.org/ns#"
   xmlns:rdf="http://www.w3.org/1999/02/22-rdf-syntax-ns#"
   xmlns:svg="http://www.w3.org/2000/svg"
   xmlns="http://www.w3.org/2000/svg"
   xmlns:sodipodi="http://sodipodi.sourceforge.net/DTD/sodipodi-0.dtd"
   xmlns:inkscape="http://www.inkscape.org/namespaces/inkscape"
   inkscape:version="0.91 r13725"
   version="1.1"
   id="svg2"
   viewBox="0 0 744.09448819 1052.3622047"
   height="297mm"
   width="210mm"
   sodipodi:docname="hand_spinner.svg">
  <sodipodi:namedview
     inkscape:window-maximized="1"
     inkscape:window-y="1"
     inkscape:window-x="0"
     inkscape:window-height="810"
     inkscape:window-width="1440"
     showgrid="false"
     inkscape:current-layer="svg2"
     inkscape:document-units="px"
     inkscape:cy="816.52103"
     inkscape:cx="371.08129"
     inkscape:zoom="0.98994949"
     inkscape:pageshadow="2"
     inkscape:pageopacity="0.0"
     borderopacity="1.0"
     bordercolor="#666666"
     pagecolor="#ffffff"
     id="base" />
  <defs
     id="defs4" />
  <metadata
     id="metadata7">
    <rdf:RDF>
      <cc:Work
         rdf:about="">
        <dc:format>image/svg+xml</dc:format>
        <dc:type
           rdf:resource="http://purl.org/dc/dcmitype/StillImage" />
        <dc:title></dc:title>
      </cc:Work>
    </rdf:RDF>
  </metadata>
  <g
     inkscape:label="Layer 1"
     inkscape:groupmode="layer"
     id="layer1" />
  <g
     id="g4567"
     transform="translate(16.162437,-195.96959)">
    <g
       id="g4376"
       inkscape:label="cirlce_gp_166"
       transform="matrix(3.543307,0,0,3.543307,371.08129,552.60818)"
       style="fill:none;stroke:#dd0000;stroke-width:1"
       info="N: ">
      <circle
         id="circle4378"
         inkscape:label="apo"
         r="11.6"
         cy="15"
         cx="25.980762" />
      <circle
         id="circle4380"
         inkscape:label="apo"
         r="11.6"
         cy="15"
         cx="-25.980762" />
      <circle
         id="circle4382"
         inkscape:label="apo"
         r="11.6"
         cy="-30"
         cx="-5.5109107e-15" />
      <circle
         id="circle4384"
         inkscape:label="apo"
         r="11.6"
         cy="0"
         cx="0" />
    </g>
    <g
       id="g4470"
       inkscape:label="cirlce_gp_166"
       transform="matrix(3.543307,0,0,3.543307,371.08129,552.60818)"
       style="fill:none;stroke:#dd0000;stroke-width:1"
       info="N: ">
      <path
         id="circle4472"
         transform="matrix(0.28222223,0,0,0.28222223,-104.72739,-155.95831)"
         d="m 371.08203,389.61523 a 56.692912,56.692912 0 0 0 -56.69336,56.69336 56.692912,56.692912 0 0 0 26.70117,48.0293 65.551179,65.551179 0 0 0 -35.56054,58.26953 65.551179,65.551179 0 0 0 0.11132,3.12696 56.692912,56.692912 0 0 0 -26.61718,-6.66993 56.692912,56.692912 0 0 0 -56.69336,56.69336 56.692912,56.692912 0 0 0 56.69336,56.69336 56.692912,56.692912 0 0 0 56.59765,-54.78906 65.551179,65.551179 0 0 0 35.46094,10.49805 65.551179,65.551179 0 0 0 35.43359,-10.40625 56.692912,56.692912 0 0 0 56.62305,54.69726 56.692912,56.692912 0 0 0 56.69336,-56.69336 56.692912,56.692912 0 0 0 -56.69336,-56.69336 56.692912,56.692912 0 0 0 -26.66406,6.71289 65.551179,65.551179 0 0 0 0.1582,-3.16992 65.551179,65.551179 0 0 0 -35.56836,-58.22265 56.692912,56.692912 0 0 0 26.70899,-48.07618 56.692912,56.692912 0 0 0 -56.69141,-56.69336 z"
         style="stroke-width:3.54330707"
         inkscape:connector-curvature="0" />
    </g>
  </g>
  <g
     id="g4540"
     inkscape:transform-center-y="0"
     inkscape:transform-center-x="0"
     inkscape:label="cirlce_gp_166"
     transform="translate(371.08129,552.60818472) scale(3.543307,3.543307) rotate(0)"
     style="stroke:#DD0000;stroke-width:1.0;fill:none"
     info="N: " />
</svg>
